<svg xmlns="http://www.w3.org/2000/svg" viewBox="0 0 920 270" width="100%"><defs><marker id="a" viewBox="0 0 10 10" refX="9" refY="5" markerWidth="7" markerHeight="7" orient="auto-start-reverse"><path d="M0 0 L10 5 L0 10 z" fill="#0e7490"/></marker></defs><g font-family="DejaVu Sans, Helvetica, Arial, sans-serif"><rect width="920" height="270" fill="#ffffff"/>
<rect x="10" y="10" width="205" height="250" rx="12" fill="none" stroke="#b45309" stroke-width="1.5" stroke-dasharray="6 4"/><text x="20" y="26" font-size="11" font-weight="700" fill="#b45309">Terrain (accès physique)</text>
<rect x="225" y="10" width="305" height="135" rx="12" fill="none" stroke="#475569" stroke-width="1.5" stroke-dasharray="6 4"/><text x="235" y="26" font-size="11" font-weight="700" fill="#475569">Réseau LoRaWAN (opérateur)</text>
<rect x="545" y="10" width="365" height="250" rx="12" fill="none" stroke="#0e7490" stroke-width="1.5" stroke-dasharray="6 4"/><text x="555" y="26" font-size="11" font-weight="700" fill="#0e7490">Exploitant</text>
<rect x="225" y="160" width="305" height="100" rx="12" fill="none" stroke="#6d28d9" stroke-width="1.5" stroke-dasharray="6 4"/><text x="235" y="176" font-size="11" font-weight="700" fill="#6d28d9">Fabricant</text>
<rect x="25" y="40" width="175" height="200" rx="8" fill="#fff7ed" stroke="#b45309" stroke-width="1.4"/>
<text x="112.5" y="60" text-anchor="middle" font-size="12" font-weight="700" fill="#0f172a">Capteur LS-1</text>
<text x="112.5" y="80" text-anchor="middle" font-size="11" fill="#334155">Cellule d'ensoleillement</text>
<text x="112.5" y="96" text-anchor="middle" font-size="11" fill="#334155">MCU + MCUboot</text>
<text x="112.5" y="112" text-anchor="middle" font-size="11" fill="#334155">Radio LoRa</text>
<text x="112.5" y="128" text-anchor="middle" font-size="11" fill="#334155">Port SWD verrouillé</text>
<text x="112.5" y="144" text-anchor="middle" font-size="11" fill="#334155">Pile, 10 ans</text>
<rect x="240" y="50" width="115" height="60" rx="8" fill="#ffffff" stroke="#94a3b8" stroke-width="1.4"/>
<text x="297.5" y="70" text-anchor="middle" font-size="12" font-weight="700" fill="#0f172a">Passerelle</text>
<rect x="385" y="50" width="125" height="60" rx="8" fill="#ffffff" stroke="#94a3b8" stroke-width="1.4"/>
<text x="447.5" y="70" text-anchor="middle" font-size="12" font-weight="700" fill="#0f172a">Serveur réseau</text>
<rect x="555" y="50" width="170" height="60" rx="8" fill="#ffffff" stroke="#94a3b8" stroke-width="1.4"/>
<text x="640.0" y="70" text-anchor="middle" font-size="12" font-weight="700" fill="#0f172a">Serveur d'application</text>
<rect x="740" y="50" width="160" height="76" rx="8" fill="#ffffff" stroke="#94a3b8" stroke-width="1.4"/>
<text x="820.0" y="70" text-anchor="middle" font-size="12" font-weight="700" fill="#0f172a">Supervision</text>
<text x="820.0" y="90" text-anchor="middle" font-size="11" fill="#334155">tableau de bord</text>
<text x="820.0" y="106" text-anchor="middle" font-size="11" fill="#334155">alertes</text>
<rect x="240" y="185" width="130" height="45" rx="8" fill="#f5f3ff" stroke="#6d28d9" stroke-width="1.4"/>
<text x="305.0" y="205" text-anchor="middle" font-size="12" font-weight="700" fill="#0f172a">Clé de signature</text>
<line x1="200" y1="80" x2="240" y2="80" stroke="#0e7490" stroke-width="1.6" stroke-dasharray="5 4" marker-start="url(#a)" marker-end="url(#a)"/>
<line x1="355" y1="80" x2="385" y2="80" stroke="#0e7490" stroke-width="1.6" marker-start="url(#a)" marker-end="url(#a)"/>
<line x1="510" y1="80" x2="555" y2="80" stroke="#0e7490" stroke-width="1.6" marker-start="url(#a)" marker-end="url(#a)"/>
<line x1="725" y1="80" x2="740" y2="80" stroke="#0e7490" stroke-width="1.6" marker-end="url(#a)"/>
<line x1="370" y1="207" x2="640" y2="110" stroke="#0e7490" stroke-width="1.6" marker-end="url(#a)"/>
<text x="440" y="252" text-anchor="middle" font-size="10" fill="#6d28d9">image signée, mise à jour (FUOTA)</text>
<text x="375" y="133" text-anchor="middle" font-size="10" fill="#0e7490">LoRaWAN : chiffré, authentifié</text>
<circle cx="505" cy="158" r="10" fill="#b91c1c"/><text x="505" y="162" text-anchor="middle" font-size="11" font-weight="700" fill="#ffffff">1</text>
<circle cx="197" cy="43" r="10" fill="#b91c1c"/><text x="197" y="47" text-anchor="middle" font-size="11" font-weight="700" fill="#ffffff">2</text>
<circle cx="722" cy="47" r="10" fill="#b91c1c"/><text x="722" y="51" text-anchor="middle" font-size="11" font-weight="700" fill="#ffffff">3</text>
<circle cx="28" cy="243" r="10" fill="#b91c1c"/><text x="28" y="247" text-anchor="middle" font-size="11" font-weight="700" fill="#ffffff">4</text>
<circle cx="220" cy="66" r="10" fill="#b91c1c"/><text x="220" y="70" text-anchor="middle" font-size="11" font-weight="700" fill="#ffffff">5</text>
<circle cx="112" cy="205" r="10" fill="#b91c1c"/><text x="112" y="209" text-anchor="middle" font-size="11" font-weight="700" fill="#ffffff">6</text>
<circle cx="507" cy="47" r="10" fill="#b91c1c"/><text x="507" y="51" text-anchor="middle" font-size="11" font-weight="700" fill="#ffffff">7</text></g></svg>